<svg xmlns="http://www.w3.org/2000/svg" viewBox="0 0 800 800" width="800" height="800">
<defs>
  <radialGradient id="bg" cx="50%" cy="38%" r="75%"><stop offset="0" stop-color="#4a1030"/><stop offset="1" stop-color="#12030b"/></radialGradient>
  <linearGradient id="m" x1="0" y1="0" x2="1" y2="1"><stop offset="0" stop-color="#ff9ec7"/><stop offset="1" stop-color="#8e2a8f"/></linearGradient>
  <linearGradient id="m2" x1="0" y1="0" x2="0" y2="1"><stop offset="0" stop-color="#ff9ec7"/><stop offset="1" stop-color="#8e2a8f"/></linearGradient>
  <pattern id="layers" width="8" height="6" patternUnits="userSpaceOnUse"><rect width="8" height="3" fill="#fff" opacity=".10"/><rect y="3" width="8" height="3" fill="#000" opacity=".06"/></pattern>
  <radialGradient id="shadow" cx="50%" cy="50%" r="50%"><stop offset="0" stop-color="#000" stop-opacity=".45"/><stop offset="1" stop-color="#000" stop-opacity="0"/></radialGradient>
  <radialGradient id="shine" cx="30%" cy="25%" r="60%"><stop offset="0" stop-color="#fff" stop-opacity=".55"/><stop offset=".5" stop-color="#fff" stop-opacity="0"/></radialGradient>
</defs>
<rect width="800" height="800" fill="url(#bg)"/>
<g opacity=".08" stroke="#fff"><line x1="0" y1="560" x2="-480.0000000000001" y2="800"/><line x1="80" y1="560" x2="-304" y2="800"/><line x1="160" y1="560" x2="-128" y2="800"/><line x1="240" y1="560" x2="48" y2="800"/><line x1="320" y1="560" x2="224" y2="800"/><line x1="400" y1="560" x2="400" y2="800"/><line x1="480" y1="560" x2="576" y2="800"/><line x1="560" y1="560" x2="752" y2="800"/><line x1="640" y1="560" x2="928" y2="800"/><line x1="720" y1="560" x2="1104" y2="800"/><line x1="800" y1="560" x2="1280" y2="800"/><line x1="0" y1="580" x2="800" y2="580"/><line x1="0" y1="610" x2="800" y2="610"/><line x1="0" y1="650" x2="800" y2="650"/><line x1="0" y1="700" x2="800" y2="700"/><line x1="0" y1="770" x2="800" y2="770"/></g>
<ellipse cx="400" cy="640" rx="240" ry="34" fill="url(#shadow)"/>
<g id="j"><path d="M330 620 q-40 -120 -10 -220 q30 -90 20 -170 h120 q-10 80 20 170 q30 100 -10 220z" fill="url(#m)"/><path d="M330 620 q-40 -120 -10 -220 q30 -90 20 -170 h120 q-10 80 20 170 q30 100 -10 220z" fill="url(#layers)"/><path d="M330 620 q-40 -120 -10 -220 q30 -90 20 -170 h120 q-10 80 20 170 q30 100 -10 220z" fill="url(#shine)"/><path d="M320 620 C 260 520, 400 380, 340 230" stroke="#fff" stroke-opacity=".18" stroke-width="5" fill="none"/><path d="M340 620 C 280 520, 420 380, 360 230" stroke="#fff" stroke-opacity=".18" stroke-width="5" fill="none"/><path d="M360 620 C 300 520, 440 380, 380 230" stroke="#fff" stroke-opacity=".18" stroke-width="5" fill="none"/><path d="M380 620 C 320 520, 460 380, 400 230" stroke="#fff" stroke-opacity=".18" stroke-width="5" fill="none"/><path d="M400 620 C 340 520, 480 380, 420 230" stroke="#fff" stroke-opacity=".18" stroke-width="5" fill="none"/><path d="M420 620 C 360 520, 500 380, 440 230" stroke="#fff" stroke-opacity=".18" stroke-width="5" fill="none"/><path d="M440 620 C 380 520, 520 380, 460 230" stroke="#fff" stroke-opacity=".18" stroke-width="5" fill="none"/><path d="M460 620 C 400 520, 540 380, 480 230" stroke="#fff" stroke-opacity=".18" stroke-width="5" fill="none"/><path d="M480 620 C 420 520, 560 380, 500 230" stroke="#fff" stroke-opacity=".18" stroke-width="5" fill="none"/><ellipse cx="400" cy="230" rx="60" ry="12" fill="#5a1440"/><path d="M400 230 q-20 -80 -60 -120 M400 230 q10 -90 50 -140 M400 230 q30 -60 90 -80" stroke="#6cbf6a" stroke-width="6" fill="none"/><circle cx="340" cy="110" r="22" fill="#ffd166"/><circle cx="450" cy="90" r="26" fill="#ff6f91"/><circle cx="490" cy="150" r="18" fill="#f8f5ff"/></g>
</svg>