<svg xmlns="http://www.w3.org/2000/svg" viewBox="0 0 800 800" width="800" height="800">
<defs>
  <radialGradient id="bg" cx="50%" cy="38%" r="75%"><stop offset="0" stop-color="#0f3b57"/><stop offset="1" stop-color="#03101a"/></radialGradient>
  <linearGradient id="m" x1="0" y1="0" x2="1" y2="1"><stop offset="0" stop-color="#6ee7ff"/><stop offset="1" stop-color="#1d7fd1"/></linearGradient>
  <linearGradient id="m2" x1="0" y1="0" x2="0" y2="1"><stop offset="0" stop-color="#6ee7ff"/><stop offset="1" stop-color="#1d7fd1"/></linearGradient>
  <pattern id="layers" width="8" height="6" patternUnits="userSpaceOnUse"><rect width="8" height="3" fill="#fff" opacity=".10"/><rect y="3" width="8" height="3" fill="#000" opacity=".06"/></pattern>
  <radialGradient id="shadow" cx="50%" cy="50%" r="50%"><stop offset="0" stop-color="#000" stop-opacity=".45"/><stop offset="1" stop-color="#000" stop-opacity="0"/></radialGradient>
  <radialGradient id="shine" cx="30%" cy="25%" r="60%"><stop offset="0" stop-color="#fff" stop-opacity=".55"/><stop offset=".5" stop-color="#fff" stop-opacity="0"/></radialGradient>
</defs>
<rect width="800" height="800" fill="url(#bg)"/>
<g opacity=".08" stroke="#fff"><line x1="0" y1="560" x2="-480.0000000000001" y2="800"/><line x1="80" y1="560" x2="-304" y2="800"/><line x1="160" y1="560" x2="-128" y2="800"/><line x1="240" y1="560" x2="48" y2="800"/><line x1="320" y1="560" x2="224" y2="800"/><line x1="400" y1="560" x2="400" y2="800"/><line x1="480" y1="560" x2="576" y2="800"/><line x1="560" y1="560" x2="752" y2="800"/><line x1="640" y1="560" x2="928" y2="800"/><line x1="720" y1="560" x2="1104" y2="800"/><line x1="800" y1="560" x2="1280" y2="800"/><line x1="0" y1="580" x2="800" y2="580"/><line x1="0" y1="610" x2="800" y2="610"/><line x1="0" y1="650" x2="800" y2="650"/><line x1="0" y1="700" x2="800" y2="700"/><line x1="0" y1="770" x2="800" y2="770"/></g>
<ellipse cx="400" cy="640" rx="240" ry="34" fill="url(#shadow)"/>
<g id="o"><path d="M330 380 l-20 -190" stroke="#ff6b6b" stroke-width="14" stroke-linecap="round"/><path d="M360 380 l10 -170" stroke="#ffd166" stroke-width="14" stroke-linecap="round"/><path d="M470 360 l30 -150" stroke="#4ade80" stroke-width="10"/><rect x="495" y="190" width="14" height="30" fill="#e5e7eb"/><polygon points="410.0,420.0 370.0,458.1 290.0,458.1 250.0,420.0 250.0,580.0 290.0,618.1 370.0,618.1 410.0,580.0" fill="url(#m2)"/><polygon points="410.0,420.0 370.0,458.1 290.0,458.1 250.0,420.0 250.0,580.0 290.0,618.1 370.0,618.1 410.0,580.0" fill="url(#layers)"/><polygon points="410.0,420.0 370.0,458.1 290.0,458.1 250.0,420.0 290.0,381.9 370.0,381.9" fill="#0b2a44" stroke="#9af0ff" stroke-width="4"/><polygon points="550.0,400.0 510.0,438.1 430.0,438.1 390.0,400.0 390.0,580.0 430.0,618.1 510.0,618.1 550.0,580.0" fill="url(#m2)"/><polygon points="550.0,400.0 510.0,438.1 430.0,438.1 390.0,400.0 390.0,580.0 430.0,618.1 510.0,618.1 550.0,580.0" fill="url(#layers)"/><polygon points="550.0,400.0 510.0,438.1 430.0,438.1 390.0,400.0 430.0,361.9 510.0,361.9" fill="#0b2a44" stroke="#9af0ff" stroke-width="4"/><polygon points="480.0,470.0 440.0,508.1 360.0,508.1 320.0,470.0 320.0,600.0 360.0,638.1 440.0,638.1 480.0,600.0" fill="url(#m2)"/><polygon points="480.0,470.0 440.0,508.1 360.0,508.1 320.0,470.0 320.0,600.0 360.0,638.1 440.0,638.1 480.0,600.0" fill="url(#layers)"/><polygon points="480.0,470.0 440.0,508.1 360.0,508.1 320.0,470.0 360.0,431.9 440.0,431.9" fill="#0b2a44" stroke="#9af0ff" stroke-width="4"/></g>
</svg>